HIERARCHY
ROOT root
{
	OFFSET	0	13.1	24.9
	CHANNELS 6  Xposition Yposition Zposition Xrotation Yrotation Zrotation
	JOINT spine_1
	{
		OFFSET	0	9.99999	0
		CHANNELS 3  Xrotation Yrotation Zrotation
		JOINT spine_2
		{
			OFFSET	0	112	-10
			CHANNELS 3  Xrotation Yrotation Zrotation
			JOINT spine_3
			{
				OFFSET	0	206.5	19.3
				CHANNELS 3  Xrotation Yrotation Zrotation
				JOINT spine_4
				{
					OFFSET	0	110.4	14.6
					CHANNELS 3  Xrotation Yrotation Zrotation
					JOINT neck_1
					{
						OFFSET	0	71.8	-50.3
						CHANNELS 3  Xrotation Yrotation Zrotation
						JOINT neck_2
						{
							OFFSET	0	86.2	-25.8
							CHANNELS 3  Xrotation Yrotation Zrotation
							JOINT head_ee
							{
								OFFSET	0	179.8	-8.7
								CHANNELS 3  Xrotation Yrotation Zrotation
								End Site
								{
									OFFSET	1	0	0
								}
							}
						}
					}
					JOINT left_clavicle
					{
						OFFSET	-43.2	22.4	-70.8
						CHANNELS 3  Xrotation Yrotation Zrotation
						JOINT left_shoulder
						{
							OFFSET	-93.9	-5.79999	48.7
							CHANNELS 3  Xrotation Yrotation Zrotation
							JOINT left_elbow
							{
								OFFSET	-291.4	-30.8	15.2
								CHANNELS 3  Xrotation Yrotation Zrotation
								JOINT left_lowarm_twist
								{
									OFFSET	-110.7	-3.89999	13.6
									CHANNELS 3  Xrotation Yrotation Zrotation
									JOINT left_hand
									{
										OFFSET	-110.7	-3.89999	13.6
										CHANNELS 3  Xrotation Yrotation Zrotation
										JOINT left_ee
										{
											OFFSET	-80.8	-5.10001	12.1
											CHANNELS 3  Xrotation Yrotation Zrotation
											End Site
											{
												OFFSET	1	0	0
											}
										}
									}
								}
							}
						}
					}
					JOINT right_clavicle
					{
						OFFSET	43.2	22.4	-70.8
						CHANNELS 3  Xrotation Yrotation Zrotation
						JOINT right_shoulder
						{
							OFFSET	93.9	-5.79999	48.7
							CHANNELS 3  Xrotation Yrotation Zrotation
							JOINT right_elbow
							{
								OFFSET	291.4	-30.8	15.2
								CHANNELS 3  Xrotation Yrotation Zrotation
								JOINT right_lowarm_twist
								{
									OFFSET	110.7	-3.89999	13.6
									CHANNELS 3  Xrotation Yrotation Zrotation
									JOINT right_hand
									{
										OFFSET	110.7	-3.89999	13.6
										CHANNELS 3  Xrotation Yrotation Zrotation
										JOINT right_ee
										{
											OFFSET	80.8	-5.10001	12.1
											CHANNELS 3  Xrotation Yrotation Zrotation
											End Site
											{
												OFFSET	1	0	0
											}
										}
									}
								}
							}
						}
					}
				}
			}
		}
	}
	JOINT left_hip
	{
		OFFSET	-82.8	-127.5	0.300001
		CHANNELS 3  Xrotation Yrotation Zrotation
		JOINT left_knee
		{
			OFFSET	-28.2	-396.7	2.2
			CHANNELS 3  Xrotation Yrotation Zrotation
			JOINT left_ankle
			{
				OFFSET	-11.7	-411.3	35.4
				CHANNELS 3  Xrotation Yrotation Zrotation
				JOINT left_toes
				{
					OFFSET	0	-60	-88.6
					CHANNELS 3  Xrotation Yrotation Zrotation
					JOINT left_foot_ee
					{
						OFFSET	-22.5	-16.5	-42.2
						CHANNELS 3  Xrotation Yrotation Zrotation
						End Site
						{
							OFFSET	1	0	0
						}
					}
				}
			}
		}
	}
	JOINT right_hip
	{
		OFFSET	82.8	-127.5	0.300001
		CHANNELS 3  Xrotation Yrotation Zrotation
		JOINT right_knee
		{
			OFFSET	28.2	-396.7	2.2
			CHANNELS 3  Xrotation Yrotation Zrotation
			JOINT right_ankle
			{
				OFFSET	11.7	-411.3	35.4
				CHANNELS 3  Xrotation Yrotation Zrotation
				JOINT right_toes
				{
					OFFSET	0	-60	-88.6
					CHANNELS 3  Xrotation Yrotation Zrotation
					JOINT right_foot_ee
					{
						OFFSET	22.5	-16.5	-42.2
						CHANNELS 3  Xrotation Yrotation Zrotation
						End Site
						{
							OFFSET	1	0	0
						}
					}
				}
			}
		}
	}
}
MOTION
Frames: 9
Frame Time: 0.02
506.689128692 745.967 -1213.06263086 -174.884193455 -63.1297765557 -175.700468264 0.970803 -0.361005 -0.522689 0.970896 -0.327014 -0.544601 0.974093 -0.215451 -0.597585 0.973726 -0.307123 -0.55606 -18.3665 11.9415 11.6523 -18.3115 16.776 15.4522 -0.0 0.0 -0.0 5.4384 -2.39683 10.4463 -6.72764 -34.1452 63.1896 0.557643 -15.4424 0.0756072 1.88121 0.0624733 -0.23214 0.42857 20.5822 10.8651 -0.0 0.0 -0.0 9.85068 -11.901 -18.3654 -64.0911 68.9872 -9.35524 3.07122 56.6715 -1.65643 -11.137 0.522771 -1.32223 -5.51666 0.393629 40.4012 0.0 0.0 0.0 1.56071 -12.3311 4.6493 -8.60132 0.257432 1.2937 24.0347 24.5015 -3.3782 -13.5361 0.0 0.0 -0.0 0.0 -0.0 19.0148 -39.6989 13.8962 -3.91712 -0.141344 -0.584426 19.9251 -3.92415 2.72565 13.9786 -0.0 -0.0 0.0 0.0 0.0 
506.999796154 745.967 -1206.04500504 -175.424376889 -59.6556957111 -176.315481724 0.970803 -0.361005 -0.522689 0.970896 -0.327014 -0.544601 0.974093 -0.215451 -0.597585 0.973726 -0.307123 -0.55606 -18.3665 11.9415 11.6523 -18.3115 16.776 15.4522 -0.0 0.0 -0.0 5.4384 -2.39683 10.4463 -6.72764 -34.1452 63.1896 0.557643 -15.4424 0.0756072 1.88121 0.0624733 -0.23214 0.42857 20.5822 10.8651 -0.0 0.0 -0.0 9.85068 -11.901 -18.3654 -64.0911 68.9872 -9.35524 3.07122 56.6715 -1.65643 -11.137 0.522771 -1.32223 -5.51666 0.393629 40.4012 0.0 0.0 0.0 1.56071 -12.3311 4.6493 -8.60132 0.257432 1.2937 24.0347 24.5015 -3.3782 -13.5361 0.0 0.0 -0.0 0.0 -0.0 19.0148 -39.6989 13.8962 -3.91712 -0.141344 -0.584426 19.9251 -3.92415 2.72565 13.9786 -0.0 -0.0 0.0 0.0 0.0 
510.190943127 748.554 -1199.58414968 -176.074401189 -60.3273942208 -175.375011849 1.10316 -0.585329 -0.804454 1.10337 -0.532955 -0.840067 1.11138 -0.362581 -0.926434 1.11054 -0.504339 -0.857552 -17.8472 12.9438 12.7861 -17.7426 17.9746 16.7779 -0.0 0.0 -0.0 6.97118 -4.76945 13.4868 -6.25654 -32.9605 60.9532 0.54259 -15.0447 0.0716494 1.46385 0.0492724 -0.180465 0.638998 20.5582 12.1296 -0.0 0.0 -0.0 10.0792 -11.1139 -18.8775 -64.6365 70.0122 -8.92645 2.91326 55.2698 -1.52551 -14.6795 0.741893 -1.71901 -5.55667 1.58472 41.5304 0.0 0.0 0.0 0.41585 -9.7981 1.98643 -6.61858 0.215379 0.99236 23.4628 23.6916 -3.29192 -12.7024 0.0 0.0 -0.0 0.0 -0.0 23.9116 -38.6845 15.1445 -9.53256 -0.273577 -1.43569 16.2439 -3.1645 2.26093 13.593 -0.0 -0.0 0.0 0.0 0.0 
524.776254402 749.542 -1192.2072877 -177.540639428 -56.8304128925 -176.529269389 0.75737 -0.505422 -0.977497 0.757793 -0.4422 -1.00767 0.765865 -0.234978 -1.07504 0.764477 -0.401804 -1.02445 -19.3256 11.2569 11.2346 -19.2903 15.8891 14.9673 -0.0 0.0 -0.0 8.33961 -7.23107 16.298 -6.51076 -32.273 59.5798 0.758566 -20.5947 0.137821 1.28638 0.0435449 -0.158522 0.570821 20.3398 11.6401 -0.0 0.0 -0.0 9.48505 -12.3378 -17.6538 -64.8789 69.0252 -8.09507 3.69429 61.3302 -2.19096 -16.2235 0.845016 -1.8876 -5.49858 0.6944 40.4366 0.0 0.0 0.0 -1.09535 -7.21613 2.25923 -7.49577 0.235271 1.1255 21.4525 20.3211 -2.98936 -13.6758 0.0 0.0 -0.0 0.0 -0.0 27.4852 -36.2 16.2517 -14.6015 -0.320873 -2.21175 18.8107 -2.5816 2.59067 14.0073 -0.0 -0.0 0.0 0.0 0.0 
543.7685033 752.947 -1174.02092604 -177.408895258 -49.7243298538 -175.829157062 0.959486 -0.17611 -1.23379 0.960328 -0.0972503 -1.2425 0.962655 0.145305 -1.2378 0.960521 -0.0519903 -1.24521 -19.9385 10.5269 8.76939 -20.0668 15.8571 12.5284 -0.0 0.0 -0.0 10.2924 -10.0333 20.4742 -9.40237 -32.2883 56.3479 0.992098 -26.1716 0.230614 4.07891 0.12575 -0.505718 0.824947 18.6291 12.6027 -0.0 0.0 -0.0 9.09403 -11.4389 -17.0428 -67.2614 69.5564 -5.71921 4.49269 65.7829 -2.90637 -15.811 0.817017 -1.84283 -4.92401 1.86361 36.2234 0.0 0.0 0.0 -3.60912 -5.02251 2.22784 -3.64003 0.132663 0.542785 16.9141 21.67 -2.4156 -13.8793 0.0 0.0 -0.0 0.0 -0.0 29.8119 -37.3351 15.4252 -20.2806 -0.292197 -3.08228 17.4118 -1.45143 2.41759 13.9035 -0.0 -0.0 0.0 0.0 0.0 
565.182882064 749.534 -1154.6399899 -179.942201287 -43.483158396 -178.396033217 0.841338 -0.066393 -1.19166 0.842129 0.00956453 -1.19347 0.84211 0.243077 -1.1685 0.840208 0.055498 -1.19222 -20.1597 10.0573 6.78459 -20.3939 15.9825 10.5554 -0.0 0.0 -0.0 11.6016 -12.5835 23.3558 -11.3667 -30.8534 55.3796 1.35685 -33.905 0.413619 4.97725 0.148584 -0.6182 1.03655 16.4604 13.1764 -0.0 0.0 -0.0 9.41057 -8.19442 -17.9271 -70.9287 68.5759 -1.45649 4.75126 66.9575 -3.14327 -15.4602 0.793463 -1.80459 -4.63237 0.516739 33.0464 0.0 0.0 0.0 -5.50678 -5.90489 3.03959 -4.22745 0.150826 0.631107 14.0592 20.0454 -2.01595 -14.4279 0.0 0.0 -0.0 0.0 -0.0 32.0201 -35.1421 18.1254 -22.658 -0.254607 -3.44512 15.3412 -0.375719 2.15391 13.5069 -0.0 -0.0 0.0 0.0 0.0 
564.452432729 749.534 -1152.16083964 -179.942969338 -42.6633490122 -178.397157824 0.841338 -0.066393 -1.19166 0.842129 0.00956453 -1.19347 0.84211 0.243077 -1.1685 0.840208 0.055498 -1.19222 -20.1597 10.0573 6.78459 -20.3939 15.9825 10.5554 -0.0 0.0 -0.0 11.6016 -12.5835 23.3558 -11.3667 -30.8534 55.3796 1.35685 -33.905 0.413619 4.97725 0.148584 -0.6182 1.03655 16.4604 13.1764 -0.0 0.0 -0.0 9.41057 -8.19442 -17.9271 -70.9287 68.5759 -1.45649 4.75126 66.9575 -3.14327 -15.4602 0.793463 -1.80459 -4.63237 0.516739 33.0464 0.0 0.0 0.0 -5.50678 -5.90489 3.03959 -4.22745 0.150826 0.631107 14.0592 20.0454 -2.01595 -14.4279 0.0 0.0 -0.0 0.0 -0.0 32.0201 -35.1421 18.1254 -22.658 -0.254607 -3.44512 15.3412 -0.375719 2.15391 13.5069 -0.0 -0.0 0.0 0.0 0.0 
595.050022555 739.625 -1141.21164535 178.984565146 -38.810162431 179.446103976 0.606966 0.0131626 -0.710995 0.607246 0.0583772 -0.708716 0.606587 0.198822 -0.682758 0.605948 0.0885012 -0.705588 -21.7818 8.8483 7.64903 -21.9026 13.4442 11.0603 -0.0 0.0 -0.0 11.3412 -14.7718 22.7079 -12.6675 -32.7293 53.8864 2.17988 -47.1925 0.952288 5.28502 0.156 -0.656816 1.1914 13.2103 13.0268 -0.0 0.0 -0.0 9.82661 -5.06454 -18.9864 -72.2035 66.0061 0.330746 6.24441 72.0522 -4.54329 -12.7471 0.619309 -1.50422 -4.48475 -2.23065 30.2683 0.0 0.0 0.0 -8.82472 -3.23972 7.10859 -6.14788 0.203865 0.921043 22.6359 22.2393 -3.16459 -12.841 0.0 0.0 -0.0 0.0 -0.0 34.1513 -34.8761 18.0897 -18.7763 -0.308194 -2.85202 12.5478 -2.45507 1.77473 12.4619 -0.0 -0.0 0.0 0.0 0.0 
606.834677415 735.714 -1136.44941514 178.663442835 -38.497460671 178.339506706 0.527906 0.00180397 -0.66698 0.528152 0.044241 -0.665513 0.527703 0.177222 -0.643008 0.527133 0.0734489 -0.662926 -21.3649 8.58189 6.49242 -21.525 13.4278 9.81864 -0.0 0.0 -0.0 11.8306 -15.6282 23.7877 -12.3809 -32.1619 53.6558 2.38335 -49.7281 1.10462 5.23135 0.154722 -0.650079 1.40425 12.1228 14.0261 -0.0 0.0 -0.0 10.423 -3.95353 -20.2611 -72.072 64.548 1.01731 5.19171 68.7265 -3.55124 -14.2713 0.715393 -1.67398 -4.20104 -0.196612 29.2529 0.0 0.0 0.0 -10.0586 -4.81475 8.34343 -6.04073 0.201163 0.904821 20.9043 18.4972 -2.89973 -14.6468 0.0 0.0 -0.0 0.0 -0.0 37.3633 -33.6993 19.1161 -18.8269 -0.307753 -2.85978 11.0221 0.0296898 1.57581 11.6548 -0.0 -0.0 0.0 0.0 0.0 
